<?xml version="1.0" encoding="UTF-8"?>
<svg data-bbox="0 -0.008 1080 623.306" viewBox="0 0 1080 623.2" xmlns="http://www.w3.org/2000/svg" data-type="color">
    <g>
        <path d="M0 294.5h34.4V255h-24v-23.3l13.1-.5c4.6-.1 8.3-1.1 10.9-2.9q4.05-2.7 5.7-8.4c1.2-3.8 1.8-9 2.1-15.7h30.4v90.3h27.1v29.7H0z" fill="#f8edd9" data-color="1"/>
        <path d="M316.5 204.4h57.9l18.4 63.7h.4l18.6-63.7h53v119.8h-39.1l.5-80.1h-.4l-23.7 80.1h-28.4L350 244.1h-.5l.5 80.1h-33.5z" fill="#f8edd9" data-color="1"/>
        <path d="M479.4 204.4h39v119.8h-39z" fill="#f8edd9" data-color="1"/>
        <path d="M533.1 204.4h39.5v89.2h47.5v30.6h-87z" fill="#f8edd9" data-color="1"/>
        <path d="M630 204.4h39.5v89.2H717v30.6h-87z" fill="#f8edd9" data-color="1"/>
        <path d="M727.6 204.4h39v119.8h-39z" fill="#f8edd9" data-color="1"/>
        <path d="M809.5 318.7c-10-4.9-17.6-12-22.9-21.4-5.3-9.3-8-20.5-8-33.5s2.7-23.3 8.1-32.5 13-16.2 22.9-21.2 21.5-7.5 34.7-7.5 25 2.5 35.1 7.5c10 5 17.7 12 23 21.2s8 20 8 32.5-2.7 23.6-8 33-13 16.6-22.9 21.7c-10 5-21.7 7.6-35.1 7.6s-24.8-2.5-34.8-7.4Zm48-26.2c3.8-2.4 6.9-5.9 9.1-10.7s3.4-10.7 3.4-17.8-1.1-12.7-3.4-17.2c-2.2-4.6-5.3-8-9.1-10.5q-5.7-3.6-13.2-3.6c-7.5 0-9 1.2-12.8 3.6s-6.9 5.9-9.1 10.5-3.4 10.3-3.4 17.2 1.1 13 3.4 17.8c2.2 4.9 5.3 8.4 9.1 10.7s8.1 3.5 12.8 3.5 9.4-1.2 13.2-3.6Z" fill="#f8edd9" data-color="1"/>
        <path d="M922.1 204.4h54.4l34 68.5h.2l-.9-68.5h33.9v119.8h-49l-40.2-80.7h-.2l1.3 80.7h-33.5z" fill="#f8edd9" data-color="1"/>
        <path d="M317.1 345.5h35.4l11.3 39h.2l11.4-39h32.4v73.3h-24l.3-49h-.2l-14.5 49H352l-14.5-49h-.3l.3 49H317v-73.3Z" fill="#f8edd9" data-color="1"/>
        <path d="M416.4 345.5h53.9v18.3h-30.1v12.6h22.5v11.4h-22.5v12.8h31.1v18.3h-54.9v-73.3Z" fill="#f8edd9" data-color="1"/>
        <path d="m514.4 365.3-15.5 53.5h-24.1l26.5-73.3h30.6l26.5 73.3h-28.3l-15.5-53.5h-.3Zm-13.6 40.4 3.6-12.4h19.9l3.7 12.4z" fill="#f8edd9" data-color="1"/>
        <path d="M564.2 345.5h24.2v54.6h29.1v18.7h-53.3z" fill="#f8edd9" data-color="1"/>
        <path d="M634.4 416.4c-4.9-2.4-8.3-5.5-10.3-9.3s-3-8.2-3-13v-.3h21.1c0 2.3.4 4.3 1.1 5.9s1.9 2.8 3.7 3.7c1.7.9 4.1 1.3 7.1 1.3s5.2-.3 6.9-.9 2.9-1.5 3.6-2.6 1-2.4 1-3.8-.4-2.8-1.1-3.6-2.3-1.5-4.8-2.1-6.6-1.3-12.4-2.1c-6.3-.9-11.3-2-15-3.4s-6.5-3.5-8.4-6.2c-1.9-2.8-2.9-6.6-2.9-11.3s1.3-9 3.8-12.6c2.6-3.6 6.4-6.5 11.4-8.5s11.3-3 18.7-3 14.4 1 19.2 3.1c4.8 2 8.2 5 10.2 8.7 2 3.8 3.1 8.5 3.1 14h-20.2c0-2.2-.4-4.1-1.3-5.6s-2.1-2.7-3.7-3.6-3.8-1.3-6.4-1.3-4.5.3-6.1.8q-2.4.9-3.6 2.4c-.8 1-1.2 2.3-1.2 3.7s.3 3 1 3.8c.7.9 2.2 1.6 4.7 2.3s6.6 1.4 12.4 2.3c6.4.8 11.5 1.9 15.2 3.3 3.8 1.4 6.6 3.4 8.5 6.1 1.9 2.6 2.9 6.3 2.9 10.9s-1 8.9-3.1 12.5q-3.15 5.55-10.8 8.7c-5.1 2.2-12.1 3.2-21 3.2s-15.5-1.2-20.4-3.6Z" fill="#f8edd9" data-color="1"/>
        <path d="M738.2 364.2h-18.9v-18.7h61.6v18.7h-18.8v54.6h-23.8v-54.6Z" fill="#f8edd9" data-color="1"/>
        <path d="M802 415.4c-6.1-3-10.8-7.4-14-13.1-3.3-5.7-4.9-12.6-4.9-20.5s1.7-14.3 5-19.9 8-9.9 14-13c6.1-3 13.1-4.6 21.2-4.6s15.3 1.5 21.5 4.6c6.1 3 10.8 7.4 14.1 13s4.9 12.2 4.9 19.9-1.6 14.5-4.9 20.2c-3.3 5.8-8 10.2-14 13.3-6.1 3.1-13.3 4.6-21.5 4.6s-15.2-1.5-21.3-4.5Zm29.4-16c2.3-1.4 4.2-3.6 5.6-6.6 1.4-2.9 2.1-6.6 2.1-10.9s-.7-7.7-2.1-10.5-3.2-4.9-5.6-6.4c-2.3-1.5-5-2.2-8.1-2.2s-5.5.7-7.9 2.2c-2.3 1.5-4.2 3.6-5.6 6.4q-2.1 4.2-2.1 10.5c0 6.3.7 8 2.1 10.9 1.4 3 3.2 5.2 5.6 6.6 2.3 1.4 5 2.1 7.9 2.1s5.7-.7 8.1-2.2Z" fill="#f8edd9" data-color="1"/>
        <path d="M911 415.6c-5.3-2.9-9.5-7.2-12.5-12.7s-4.5-12.1-4.5-19.7 1.7-15 5-20.8 7.9-10.3 13.9-13.4 12.9-4.6 20.9-4.6 13.4 1.1 18.6 3.3 9.2 5.3 12 9.4q4.2 6.15 4.2 14.4c0 8.25 0 3.4-.2 4.9h-19.7c0-.9.1-1.8.1-2.8 0-2.3-.6-4.3-1.8-5.9s-2.9-2.9-5-3.7-4.3-1.2-6.8-1.2-6.3.8-8.8 2.3-4.5 3.8-5.9 7-2.1 6.9-2.1 11.3.7 8.1 2.1 11.1 3.3 5.3 5.9 6.7c2.6 1.5 5.4 2.2 8.5 2.2s4.6-.4 6.6-1.2q3-1.2 4.8-3.6t1.8-5.4v-.9h-16.2v-10.7h37.4v37.3h-18.5v-.9c.2-3 .4-6.6.4-10.6h-.1c-.8 2.6-2.2 4.9-4.1 6.8s-4.3 3.4-7.3 4.3c-3 1-6.4 1.4-10.3 1.4-7 0-13.2-1.5-18.5-4.4Z" fill="#f8edd9" data-color="1"/>
        <path d="M994.1 415.4c-6.1-3-10.8-7.4-14-13.1-3.3-5.7-4.9-12.6-4.9-20.5s1.7-14.3 5-19.9 8-9.9 14-13c6.1-3 13.1-4.6 21.2-4.6s15.3 1.5 21.5 4.6c6.1 3 10.8 7.4 14.1 13s4.9 12.2 4.9 19.9-1.6 14.5-4.9 20.2c-3.3 5.8-8 10.2-14 13.3-6.1 3.1-13.3 4.6-21.5 4.6s-15.2-1.5-21.3-4.5Zm29.3-16c2.3-1.4 4.2-3.6 5.6-6.6 1.4-2.9 2.1-6.6 2.1-10.9s-.7-7.7-2.1-10.5-3.2-4.9-5.6-6.4c-2.3-1.5-5-2.2-8.1-2.2s-5.5.7-7.9 2.2c-2.3 1.5-4.2 3.6-5.6 6.4q-2.1 4.2-2.1 10.5c0 6.3.7 8 2.1 10.9 1.4 3 3.2 5.2 5.6 6.6 2.3 1.4 5 2.1 7.9 2.1s5.7-.7 8.1-2.2Z" fill="#f8edd9" data-color="1"/>
        <path d="M1060.5 399.3h19.5v19.5h-19.5z" fill="#f8edd9" data-color="1"/>
        <path d="M186.4 137.6c37.4-9.6 59.9-47.6 50.4-85-9.6-37.4-47.7-60-85-50.4-37.4 9.6-59.9 47.6-50.4 85 9.6 37.4 47.6 59.9 85 50.4m-58-63.9c-1.8-17.6 8.2-34.5 24.5-41.3 9.8-4.1 19.9-4.2 28.9-1.1.7.2.4 1.3-.3 1.2-6.2-1.4-12.7-1.3-19.3.5-21.2 5.7-34.1 27.5-28.9 48.8 1.7 7 5.1 13 9.6 17.9.5.5-.2 1.2-.8.8-7.4-6.5-12.6-15.7-13.7-26.6Z" fill="#f8edd9" data-color="1"/>
        <path d="M189.9 551.9c36.8-11.5 57.4-50.7 45.9-87.5s-50.7-57.4-87.5-45.9-57.4 50.7-45.9 87.5 50.7 57.4 87.5 45.9m-61.2-60.7c-2.7-17.5 6.4-34.9 22.3-42.5 9.5-4.6 19.7-5.2 28.8-2.6.7.2.5 1.3-.3 1.2-6.2-1-12.8-.6-19.2 1.5-20.8 6.8-32.6 29.2-26.3 50.2 2 6.9 5.7 12.8 10.5 17.4.5.5-.2 1.2-.7.8-7.7-6.1-13.4-15-15.1-25.9Z" fill="#f8edd9" data-color="1"/>
        <path d="M277.2 336.8c6.2 38.1-25.5 75-70.7 82.3-45.3 7.3-87-17.6-93.2-55.7z" fill="#f8edd9" data-color="1"/>
        <path d="M225.9 562.6c-5.4 38.2-38.7 65.1-74.3 60.1-35.6-5.1-60.1-40.1-54.7-78.4z" fill="#f8edd9" data-color="1"/>
        <path d="M218.9 151.6c-10 48.5-48.1 81.7-85 74.1-37-7.6-58.8-53.1-48.8-101.7L219 151.6Z" fill="#f8edd9" data-color="1"/>
        <path d="M207.7 209.4c-38.6 0-69.9 31.3-69.9 69.9s31.3 69.9 69.9 69.9 69.9-31.3 69.9-69.9-31.3-69.9-69.9-69.9m-.1 107.3c-20.7 0-37.5-16.8-37.5-37.5s16.8-37.5 37.5-37.5 37.5 16.8 37.5 37.5-16.8 37.5-37.5 37.5" fill="#f8edd9" data-color="1"/>
        <path d="M207.6 245.5c-18.6 0-33.7 15.1-33.7 33.7s15.1 33.7 33.7 33.7 33.7-15.1 33.7-33.7-15.1-33.7-33.7-33.7" fill="#f8edd9" data-color="1"/>
    </g>
</svg>
